<svg width="92" height="82" viewBox="0 0 92 82" fill="none" xmlns="http://www.w3.org/2000/svg">
<path d="M83.9142 21.6463H65.047V8.11736C65.047 3.64145 61.4196 0 56.9611 0H8.08595C3.62736 0 0 3.64145 0 8.11736V40.5868C0 45.0627 3.62736 48.7041 8.08595 48.7041H10.7813V56.8215C10.7813 58.9885 13.1923 60.2634 14.9716 59.0729L26.9532 51.0542V62.2331C26.9532 66.709 30.5805 70.3504 35.0391 70.3504H61.5355L77.0284 80.7192C78.8102 81.9117 81.2187 80.6353 81.2187 78.4678V70.3504H83.914C88.3726 70.3504 92 66.709 92 62.2331V29.7636C92.0002 25.2877 88.3728 21.6463 83.9142 21.6463ZM28.1459 43.752C28.1434 43.7538 28.1407 43.7554 28.1382 43.7571L16.1719 51.7657V45.9984C16.1719 44.504 14.9651 43.2926 13.4766 43.2926H8.08595C6.59976 43.2926 5.39064 42.0788 5.39064 40.5868V8.11736C5.39064 6.62539 6.59976 5.41157 8.08595 5.41157H56.9611C58.4473 5.41157 59.6564 6.62539 59.6564 8.11736V40.5868C59.6564 42.0788 58.4473 43.2926 56.9611 43.2926H29.6485C29.1269 43.2926 28.5878 43.4546 28.1459 43.752ZM86.6096 62.2331C86.6096 63.725 85.4004 64.9389 83.9142 64.9389H78.5236C77.0351 64.9389 75.8283 66.1503 75.8283 67.6446V73.4119L63.8467 65.3932C63.4039 65.0969 62.8837 64.9389 62.3517 64.9389H35.0391C33.5529 64.9389 32.3438 63.725 32.3438 62.2331V48.7041H56.9611C61.4196 48.7041 65.047 45.0627 65.047 40.5868V27.0579H83.9142C85.4004 27.0579 86.6096 28.2717 86.6096 29.7636V62.2331Z" fill="white"/>
<path d="M35.0391 27.0579H13.4766C11.9881 27.0579 10.7813 28.2693 10.7813 29.7636C10.7813 31.258 11.9881 32.4694 13.4766 32.4694H35.0391C36.5277 32.4694 37.7345 31.258 37.7345 29.7636C37.7345 28.2693 36.5277 27.0579 35.0391 27.0579Z" fill="white"/>
<path d="M51.5704 16.2347H13.4766C11.9881 16.2347 10.7813 17.4462 10.7813 18.9405C10.7813 20.4348 11.9881 21.6463 13.4766 21.6463H51.5704C53.0589 21.6463 54.2657 20.4348 54.2657 18.9405C54.2657 17.4462 53.0589 16.2347 51.5704 16.2347Z" fill="white"/>
</svg>
