<svg width="78" height="78" viewBox="0 0 78 78" fill="none" xmlns="http://www.w3.org/2000/svg">
<path d="M75.9903 24.5467C73.3173 21.8737 68.9677 21.8738 66.2937 24.5473C65.4713 25.3704 60.2204 30.6252 59.4183 31.4281V13.3188C59.4183 11.4876 58.7051 9.76615 57.4101 8.47138L50.9464 2.00789C49.6516 0.712969 47.9298 0 46.0985 0H6.85595C3.07558 0 0 3.07536 0 6.85547V71.1445C0 74.9246 3.07558 78 6.85595 78H52.5623C56.3427 78 59.4183 74.9246 59.4183 71.1445V50.8266L75.9902 34.2418C78.6696 31.5627 78.6702 27.2261 75.9903 24.5467ZM45.7065 4.57031C46.1383 4.57031 46.9703 4.49551 47.7145 5.23956L54.1783 11.703C54.9035 12.4284 54.8478 13.2231 54.8478 13.7109H45.7065V4.57031ZM54.8476 71.1445C54.8476 72.4046 53.8226 73.4297 52.5623 73.4297H6.85595C5.59583 73.4297 4.57064 72.4046 4.57064 71.1445V6.85547C4.57064 5.59543 5.59583 4.57031 6.85595 4.57031H41.1357V15.9961C41.1357 17.2581 42.1589 18.2812 43.421 18.2812H54.8476V36.0023C54.8476 36.0023 48.1053 42.7499 48.105 42.7501L44.8746 45.9804C44.6239 46.2311 44.4346 46.5371 44.3225 46.8736L41.0905 56.5687C40.8167 57.3899 41.0304 58.2952 41.6426 58.9072C42.2555 59.5201 43.1613 59.7328 43.9812 59.4593L53.6771 56.2276C54.0136 56.1155 54.3196 55.9265 54.5703 55.6755L54.8476 55.3983V71.1445ZM49.7224 47.5963L52.9543 50.828L51.7198 52.0624L46.872 53.6782L48.4879 48.8306L49.7224 47.5963ZM56.1856 47.5955L52.9537 44.3639C54.6747 42.6416 62.3182 34.9921 63.9392 33.3698L67.1711 36.6015L56.1856 47.5955ZM72.7577 31.0108L70.4018 33.3685L67.1699 30.1368L69.5265 27.7784C70.4181 26.8873 71.8676 26.8875 72.7586 27.7784C73.6494 28.6696 73.6541 30.1142 72.7577 31.0108Z" fill="white"/>
<path d="M43.421 22.8516H11.4266C10.1645 22.8516 9.14127 23.8747 9.14127 25.1367C9.14127 26.3987 10.1645 27.4219 11.4266 27.4219H43.421C44.6831 27.4219 45.7064 26.3987 45.7064 25.1367C45.7064 23.8747 44.6831 22.8516 43.421 22.8516Z" fill="white"/>
<path d="M34.2798 31.9922H11.4266C10.1645 31.9922 9.14127 33.0153 9.14127 34.2773C9.14127 35.5394 10.1645 36.5625 11.4266 36.5625H34.2798C35.5419 36.5625 36.5651 35.5394 36.5651 34.2773C36.5651 33.0153 35.5419 31.9922 34.2798 31.9922Z" fill="white"/>
<path d="M34.2798 41.1328H11.4266C10.1645 41.1328 9.14127 42.156 9.14127 43.418C9.14127 44.68 10.1645 45.7031 11.4266 45.7031H34.2798C35.5419 45.7031 36.5651 44.68 36.5651 43.418C36.5651 42.156 35.5419 41.1328 34.2798 41.1328Z" fill="white"/>
<path d="M34.2798 50.2734H11.4266C10.1645 50.2734 9.14127 51.2966 9.14127 52.5586C9.14127 53.8206 10.1645 54.8438 11.4266 54.8438H34.2798C35.5419 54.8438 36.5651 53.8206 36.5651 52.5586C36.5651 51.2966 35.5419 50.2734 34.2798 50.2734Z" fill="white"/>
<path d="M43.421 64.2891H29.7091C28.447 64.2891 27.4238 65.3122 27.4238 66.5742C27.4238 67.8362 28.447 68.8594 29.7091 68.8594H43.421C44.6831 68.8594 45.7064 67.8362 45.7064 66.5742C45.7064 65.3122 44.6831 64.2891 43.421 64.2891Z" fill="white"/>
</svg>
