<svg width="139" height="24" viewBox="0 0 139 24" fill="none" xmlns="http://www.w3.org/2000/svg">
<path fill-rule="evenodd" clip-rule="evenodd" d="M33.4748 18.0193H30.9058V5.64673H36.468V7.92493H33.4708L33.4748 18.0193ZM42.3049 5.64673H48.2952V7.92493H44.9789V10.3122H47.5479V12.5904H44.9789V15.7451H48.5093V18.0234H42.3049V5.64673ZM59.2096 12.5904H56.7496V18.0153H54.0756V5.64673H56.7496V10.3122H59.2096V5.64673H61.7786V18.0193H59.2096V12.5904ZM67.5792 5.64673H73.5695V7.92493H70.2532V10.3122H72.8223V12.5904H70.2532V15.7451H73.7836V18.0234H67.5792V5.64673ZM84.1608 9.22561C84.1608 8.66414 83.7851 7.92493 83.1994 7.92493H82.0037V11.9401H83.2155C83.8053 11.9401 84.1769 10.8898 84.1769 10.4213L84.1608 9.22561ZM83.8376 14.1294H82.0037V18.0355H79.3297V5.64673H83.7164C84.1201 5.65509 84.5181 5.74331 84.8875 5.90631C85.2569 6.0693 85.5904 6.30385 85.8687 6.59639C86.1469 6.88894 86.3645 7.23371 86.5089 7.61079C86.6532 7.98787 86.7214 8.3898 86.7096 8.79339V10.7484C86.7257 12.1097 85.9583 14.1294 83.8376 14.1294ZM94.9055 8.92265L94.0491 13.4791H95.7618L94.9055 8.92265ZM96.19 15.5432H93.621L93.1928 18.0395H90.5187L93.1928 5.64673H96.6182L99.2922 18.0193H96.6182L96.19 15.5432ZM110.465 18.0395H103.816V5.64673H106.49V15.7451H108.845V5.64673H111.519V15.7451H112.59V20.1884H110.449L110.465 18.0395ZM122.708 11.419L120.034 16.7348V18.0355H117.36V5.64673H120.034V12.2672L122.708 6.95144V5.64673H125.382V18.0193H122.708V11.419ZM135.679 7.94513H134.394C133.93 7.94513 133.538 8.55911 133.538 8.92265V10.3324C133.538 10.7363 133.877 11.6331 134.285 11.6331H135.675L135.679 7.94513ZM135.679 18.0435V13.677H134.822L133.11 18.0193H130.222L132.577 13.1357C132.577 13.1357 130.961 12.4127 130.961 10.2072V8.59142C130.961 6.90701 132.136 5.66288 134.063 5.66288H138.353V18.0355L135.679 18.0435Z" fill="#4D4D4D"/>
<path d="M3.09025 20.0367C1.10575 17.8359 0.00501826 14.9779 1.71431e-05 12.0134C-0.00498398 9.04879 1.0861 6.18718 3.06317 3.9796L8.09374 9.0144V15.0252L3.09025 20.0367ZM15.9143 23.3597V14.603H9.40556V9.38619H23.7233C24.8069 14.2196 22.8101 20.7997 15.9143 23.3597ZM15.9143 8.10039V0.660498C17.6399 1.24979 19.2077 2.22669 20.4975 3.51631C21.7874 4.80593 22.7651 6.37403 23.3557 8.10039H15.9143ZM8.99537 8.10039L3.9648 3.06559C6.19133 1.06911 9.08245 -0.0233934 12.0718 0.00210194C12.933 -0.0162314 13.7925 0.0854387 14.6257 0.30419V8.10039H8.99537ZM3.96867 20.9159L8.99924 15.9198H14.6257V23.716C12.7548 24.1294 10.8125 24.091 8.95932 23.6041C7.10617 23.1172 5.39545 22.1957 3.96867 20.9159Z" fill="#4D4D4D"/>
</svg>
